<svg width="40" height="41" viewBox="0 0 40 41" fill="none" xmlns="http://www.w3.org/2000/svg">
<g clip-path="url(#clip0_3_1122)">
<path d="M39.8957 15.8438C39.6339 15.0339 38.9155 14.4586 38.0655 14.382L26.5205 13.3337L21.9552 2.64829C21.6186 1.86519 20.852 1.35828 20.0002 1.35828C19.1484 1.35828 18.3818 1.86519 18.0452 2.65012L13.48 13.3337L1.93303 14.382C1.08462 14.4604 0.368046 15.0339 0.104673 15.8438C-0.158701 16.6538 0.0845308 17.5422 0.726332 18.1022L9.45306 25.7556L6.87975 37.091C6.69145 37.9245 7.01495 38.786 7.70649 39.2859C8.07821 39.5544 8.51309 39.6912 8.95164 39.6912C9.32976 39.6912 9.70483 39.5892 10.0415 39.3878L20.0002 33.4358L29.9553 39.3878C30.6838 39.8261 31.6021 39.7861 32.2921 39.2859C32.9839 38.7845 33.3071 37.9226 33.1188 37.091L30.5455 25.7556L39.2722 18.1037C39.914 17.5422 40.1591 16.6553 39.8957 15.8438Z" fill="#FF8811"/>
</g>
<defs>
<clipPath id="clip0_3_1122">
<rect width="40" height="40" fill="white" transform="translate(0 0.5)"/>
</clipPath>
</defs>
</svg>
