<svg width="40" height="41" viewBox="0 0 40 41" fill="none" xmlns="http://www.w3.org/2000/svg">
<path fill-rule="evenodd" clip-rule="evenodd" d="M27.2125 15.5745C26.547 15.091 26.2239 14.2741 26.3785 13.4661L27.0135 10.1483L24.5728 7.85915H4.03176C2.12957 7.85915 0.573242 9.41548 0.573242 11.3177V29.9794C0.573242 31.8816 2.12965 33.4379 4.03176 33.4379H7.5623V39.9351L12.9171 33.4379H27.5053C29.407 33.4379 30.9638 31.8813 30.9638 29.9794V14.8968L29.4755 15.7162C28.7571 16.1117 27.8759 16.0566 27.2125 15.5745ZM10.1347 28.0642C10.1347 28.4736 9.79988 28.8085 9.39051 28.8085H7.20027C6.7909 28.8085 6.45605 28.4736 6.45605 28.0642V19.0112C6.45605 18.6018 6.7909 18.2669 7.20027 18.2669H9.39051C9.79988 18.2669 10.1347 18.6018 10.1347 19.0112V28.0642ZM23.3372 27.8665C22.0186 29.1852 16.8332 29.0936 14.9969 28.7592C13.769 28.5356 13.1518 28.1505 11.7286 28.0642L11.7132 18.8613C15.9562 18.2241 16.804 15.8988 16.4394 11.5707C16.4144 11.2738 16.6307 11.0102 16.9269 10.977C20.5305 10.572 19.7844 16.3763 19.5618 18.1046H21.1329C24.7082 18.0144 24.8416 18.7828 25.055 20.2149C25.2501 21.524 24.3192 26.8432 23.3373 27.8665H23.3372ZM39.2512 6.69774L36.1598 9.59712L36.9566 13.7598C36.9978 13.9751 36.9161 14.1817 36.7388 14.3106C36.5615 14.4394 36.3397 14.4532 36.1477 14.3476L32.4349 12.3035L28.7221 14.3476C28.53 14.4533 28.3082 14.4394 28.131 14.3106C27.9537 14.1817 27.8719 13.9751 27.9132 13.7598L28.7099 9.59719L25.6185 6.69774C25.4586 6.54782 25.4033 6.33266 25.4711 6.12422C25.5388 5.91579 25.71 5.77423 25.9275 5.74688L30.1328 5.21829L31.935 1.38227C32.0282 1.18391 32.2157 1.06485 32.4349 1.06485C32.654 1.06485 32.8416 1.18391 32.9348 1.38227L34.7371 5.21829L38.9423 5.74688C39.1597 5.77423 39.331 5.91579 39.3987 6.12422C39.4664 6.33266 39.4111 6.54782 39.2513 6.69774H39.2512Z" fill="url(#paint0_linear_3_1119)"/>
<defs>
<linearGradient id="paint0_linear_3_1119" x1="2.78085" y1="3.27339" x2="39.4373" y2="28.9662" gradientUnits="userSpaceOnUse">
<stop stop-color="#632EE3"/>
<stop offset="1" stop-color="#9F62F2"/>
</linearGradient>
</defs>
</svg>
